<svg xmlns="http://www.w3.org/2000/svg" viewBox="0 0 600 360" preserveAspectRatio="xMidYMid slice">
  <defs>
    <radialGradient id="bg" cx="50%" cy="42%" r="70%"><stop offset="0" stop-color="#10305c"/><stop offset="1" stop-color="#0A1730"/></radialGradient>
    <filter id="glow"><feGaussianBlur stdDeviation="4" result="b"/><feMerge><feMergeNode in="b"/><feMergeNode in="SourceGraphic"/></feMerge></filter>
  </defs>
  <rect width="600" height="360" fill="url(#bg)"/>
  <g stroke="#1A8CF0" stroke-width="1.3" opacity=".55">
    <path d="M300 70 C200 70 150 140 165 200 C150 250 200 300 270 290 M300 70 C400 70 450 140 435 200 C450 250 400 300 330 290 M300 70 L300 300" fill="none" stroke="#6BB6FF" stroke-width="1.6" opacity=".5"/>
    <line x1="210" y1="130" x2="270" y2="170"/><line x1="270" y1="170" x2="230" y2="225"/><line x1="230" y1="225" x2="290" y2="250"/>
    <line x1="390" y1="130" x2="330" y2="170"/><line x1="330" y1="170" x2="370" y2="225"/><line x1="370" y1="225" x2="310" y2="250"/>
    <line x1="270" y1="170" x2="330" y2="170"/><line x1="230" y1="225" x2="370" y2="225"/>
  </g>
  <g fill="#7EC4FF" filter="url(#glow)">
    <circle cx="210" cy="130" r="6"/><circle cx="270" cy="170" r="7"/><circle cx="230" cy="225" r="6"/><circle cx="290" cy="250" r="5"/>
    <circle cx="390" cy="130" r="6"/><circle cx="330" cy="170" r="7"/><circle cx="370" cy="225" r="6"/><circle cx="310" cy="250" r="5"/>
    <circle cx="300" cy="110" r="5" fill="#C89253"/>
  </g>
  <g fill="#1A8CF0" opacity=".9"><circle cx="165" cy="200" r="4"/><circle cx="435" cy="200" r="4"/></g>
</svg>
