<svg xmlns="http://www.w3.org/2000/svg" viewBox="0 0 600 360" preserveAspectRatio="xMidYMid slice">
  <defs>
    <radialGradient id="ng" cx="50%" cy="50%" r="65%"><stop offset="0" stop-color="#10305c"/><stop offset="1" stop-color="#0A1730"/></radialGradient>
    <filter id="ngl"><feGaussianBlur stdDeviation="3.5" result="b"/><feMerge><feMergeNode in="b"/><feMergeNode in="SourceGraphic"/></feMerge></filter>
  </defs>
  <rect width="600" height="360" fill="url(#ng)"/>
  <g stroke="#1A8CF0" stroke-width="1.2" opacity=".5">
    <line x1="300" y1="180" x2="170" y2="100"/><line x1="300" y1="180" x2="430" y2="100"/>
    <line x1="300" y1="180" x2="150" y2="250"/><line x1="300" y1="180" x2="450" y2="250"/>
    <line x1="300" y1="180" x2="300" y2="70"/><line x1="300" y1="180" x2="300" y2="300"/>
    <line x1="170" y1="100" x2="300" y2="70"/><line x1="430" y1="100" x2="300" y2="70"/>
    <line x1="150" y1="250" x2="300" y2="300"/><line x1="450" y1="250" x2="300" y2="300"/>
    <line x1="170" y1="100" x2="150" y2="250"/><line x1="430" y1="100" x2="450" y2="250"/>
  </g>
  <g fill="#7EC4FF" filter="url(#ngl)">
    <circle cx="170" cy="100" r="7"/><circle cx="430" cy="100" r="7"/><circle cx="150" cy="250" r="7"/>
    <circle cx="450" cy="250" r="7"/><circle cx="300" cy="70" r="6"/><circle cx="300" cy="300" r="6"/>
  </g>
  <circle cx="300" cy="180" r="16" fill="#C89253"/>
  <circle cx="300" cy="180" r="26" fill="none" stroke="#C89253" stroke-width="1.2" opacity=".45"/>
</svg>
