<svg xmlns="http://www.w3.org/2000/svg" viewBox="0 0 640 520"><g fill="none" stroke="#6f86a8" stroke-width="1" opacity=".42"><circle cx="410" cy="170" r="118"/><circle cx="410" cy="170" r="73"/><path d="M0 470 640 70M42 0v520M98 0v520M154 0v520M210 0v520M266 0v520M322 0v520M378 0v520M434 0v520M490 0v520M546 0v520M602 0v520M0 38h640M0 94h640M0 150h640M0 206h640M0 262h640M0 318h640M0 374h640M0 430h640M410 52v236M292 170h236M330 90l160 160M490 90 330 250"/><path d="M70 410c120-120 220-140 330-70s150 36 220-80"/></g></svg>